<?xml version="1.0" encoding="UTF-8" standalone="no"?>
<svg xmlns="http://www.w3.org/2000/svg" width="800" height="600" viewBox="0 0 800 600">
  <style>
    .box {
      fill: white;
      stroke: #2c3e50;
      stroke-width: 2;
      rx: 10;
      ry: 10;
    }
    .title {
      font-family: 'Arial', sans-serif;
      font-size: 16px;
      font-weight: bold;
      text-anchor: middle;
      fill: #2c3e50;
    }
    .arrow {
      stroke: #2c3e50;
      stroke-width: 2;
      fill: none;
      marker-end: url(#arrowhead);
    }
    .bidirectional {
      stroke: #2c3e50;
      stroke-width: 2;
      fill: none;
      marker-end: url(#arrowhead);
      marker-start: url(#arrowhead);
    }
    .database {
      fill: #ecf0f1;
      stroke: #2c3e50;
      stroke-width: 2;
    }
  </style>

  <defs>
    <marker id="arrowhead" markerWidth="10" markerHeight="7" refX="9" refY="3.5" orient="auto">
      <polygon points="0 0, 10 3.5, 0 7" fill="#2c3e50" />
    </marker>
  </defs>

  <!-- 사용자 질문 박스 -->
  <rect class="box" x="100" y="50" width="150" height="80" />
  <text class="title" x="175" y="95">사용자 질문</text>

  <!-- Express 서버 박스 -->
  <rect class="box" x="325" y="50" width="150" height="80" />
  <text class="title" x="400" y="95">Express 서버</text>

  <!-- OpenAI API 박스 -->
  <rect class="box" x="550" y="50" width="150" height="80" />
  <text class="title" x="625" y="95">OpenAI API</text>

  <!-- Weaviate 박스 -->
  <rect class="box" x="200" y="250" width="150" height="80" />
  <text class="title" x="275" y="295">Weaviate</text>
  <text font-family="Arial" font-size="12" text-anchor="middle" x="275" y="315">(벡터 검색)</text>

  <!-- Neo4j 박스 -->
  <rect class="box" x="450" y="250" width="150" height="80" />
  <text class="title" x="525" y="295">Neo4j</text>
  <text font-family="Arial" font-size="12" text-anchor="middle" x="525" y="315">(그래프 검색)</text>

  <!-- Airflow 박스 -->
  <rect class="box" x="325" y="400" width="150" height="80" />
  <text class="title" x="400" y="445">Airflow</text>

  <!-- 연결선: 사용자 질문 -> Express 서버 -->
  <path class="arrow" d="M250,90 L325,90" />

  <!-- 연결선: Express 서버 <-> OpenAI API -->
  <path class="bidirectional" d="M475,90 L550,90" />

  <!-- 연결선: Express 서버 -> 중간 지점 -->
  <path class="arrow" d="M400,130 L400,180" />

  <!-- 중간 지점에서 Weaviate와 Neo4j로의 분기선 -->
  <path class="arrow" d="M400,180 L275,250" />
  <path class="arrow" d="M400,180 L525,250" />

  <!-- 연결선: Weaviate -> Airflow -->
  <path class="arrow" d="M275,330 L275,370 L325,400" />

  <!-- 연결선: Neo4j -> Airflow -->
  <path class="arrow" d="M525,330 L525,370 L475,400" />

  <!-- 데이터베이스 아이콘: Weaviate -->
  <ellipse class="database" cx="275" cy="265" rx="30" ry="10" />

  <!-- 데이터베이스 아이콘: Neo4j -->
  <ellipse class="database" cx="525" cy="265" rx="30" ry="10" />

  <!-- 타이틀 -->
  <text font-family="Arial" font-size="24" font-weight="bold" text-anchor="middle" x="400" y="30" fill="#2c3e50">GraphRAG 시스템 아키텍처</text>
</svg> 